<?xml version="1.0" standalone="no"?><svg xmlns="http://www.w3.org/2000/svg" viewBox="0 0 1440 320"><path fill="#f8b119" fill-opacity="1" d="M0,160L6.2,154.7C12.3,149,25,139,37,149.3C49.2,160,62,192,74,218.7C86.2,245,98,267,111,234.7C123.1,203,135,117,148,90.7C160,64,172,96,185,122.7C196.9,149,209,171,222,197.3C233.8,224,246,256,258,245.3C270.8,235,283,181,295,138.7C307.7,96,320,64,332,64C344.6,64,357,96,369,117.3C381.5,139,394,149,406,138.7C418.5,128,431,96,443,101.3C455.4,107,468,149,480,176C492.3,203,505,213,517,192C529.2,171,542,117,554,101.3C566.2,85,578,107,591,112C603.1,117,615,107,628,112C640,117,652,139,665,138.7C676.9,139,689,117,702,122.7C713.8,128,726,160,738,149.3C750.8,139,763,85,775,101.3C787.7,117,800,203,812,245.3C824.6,288,837,288,849,245.3C861.5,203,874,117,886,74.7C898.5,32,911,32,923,69.3C935.4,107,948,181,960,181.3C972.3,181,985,107,997,117.3C1009.2,128,1022,224,1034,266.7C1046.2,309,1058,299,1071,277.3C1083.1,256,1095,224,1108,197.3C1120,171,1132,149,1145,154.7C1156.9,160,1169,192,1182,181.3C1193.8,171,1206,117,1218,133.3C1230.8,149,1243,235,1255,256C1267.7,277,1280,235,1292,192C1304.6,149,1317,107,1329,90.7C1341.5,75,1354,85,1366,112C1378.5,139,1391,181,1403,181.3C1415.4,181,1428,139,1434,117.3L1440,96L1440,0L1433.8,0C1427.7,0,1415,0,1403,0C1390.8,0,1378,0,1366,0C1353.8,0,1342,0,1329,0C1316.9,0,1305,0,1292,0C1280,0,1268,0,1255,0C1243.1,0,1231,0,1218,0C1206.2,0,1194,0,1182,0C1169.2,0,1157,0,1145,0C1132.3,0,1120,0,1108,0C1095.4,0,1083,0,1071,0C1058.5,0,1046,0,1034,0C1021.5,0,1009,0,997,0C984.6,0,972,0,960,0C947.7,0,935,0,923,0C910.8,0,898,0,886,0C873.8,0,862,0,849,0C836.9,0,825,0,812,0C800,0,788,0,775,0C763.1,0,751,0,738,0C726.2,0,714,0,702,0C689.2,0,677,0,665,0C652.3,0,640,0,628,0C615.4,0,603,0,591,0C578.5,0,566,0,554,0C541.5,0,529,0,517,0C504.6,0,492,0,480,0C467.7,0,455,0,443,0C430.8,0,418,0,406,0C393.8,0,382,0,369,0C356.9,0,345,0,332,0C320,0,308,0,295,0C283.1,0,271,0,258,0C246.2,0,234,0,222,0C209.2,0,197,0,185,0C172.3,0,160,0,148,0C135.4,0,123,0,111,0C98.5,0,86,0,74,0C61.5,0,49,0,37,0C24.6,0,12,0,6,0L0,0Z"></path></svg>